<svg width="408" height="408" viewBox="0 0 408 408" fill="none" xmlns="http://www.w3.org/2000/svg">
<circle cx="203.82" cy="203.82" r="203.82" fill="url(#paint0_linear_16_151)"/>
<path d="M228.671 92.6614L315.389 179.379C329.001 192.991 329.001 215.06 315.389 228.671L288.532 255.529L304.425 291.512L265.685 278.375L228.671 315.389C215.06 329.001 192.991 329.001 179.379 315.389L92.6613 228.671C79.0497 215.06 79.0496 192.991 92.6613 179.379L179.379 92.6614C192.991 79.0497 215.06 79.0497 228.671 92.6614Z" fill="#FBF7F9"/>
<path d="M158.614 255.077C157.818 255.077 157.311 254.715 157.094 253.991L137.871 180.469L137.763 180.034C137.763 179.383 138.161 179.057 138.957 179.057H152.424C153.148 179.057 153.618 179.419 153.836 180.143L164.153 224.343C164.225 224.633 164.334 224.778 164.478 224.778C164.623 224.778 164.732 224.633 164.804 224.343L174.796 180.251C175.013 179.455 175.483 179.057 176.207 179.057H189.348C190.144 179.057 190.651 179.419 190.868 180.143L201.728 224.343C201.801 224.56 201.909 224.705 202.054 224.778C202.199 224.778 202.308 224.633 202.38 224.343L212.371 180.251C212.404 180.131 212.442 180.021 212.487 179.919C214.298 174.696 214.414 169.15 217.258 164.261C219.575 160.279 222.869 157.201 227.141 155.029C231.412 152.857 236.372 151.771 242.019 151.771C247.594 151.771 252.481 152.821 256.68 154.921C260.952 156.948 264.246 159.88 266.563 163.718C268.952 167.482 270.147 171.863 270.147 176.858C270.147 177.51 269.712 177.908 268.843 178.053L256.137 178.813H255.92C255.196 178.813 254.834 178.415 254.834 177.618C254.834 173.781 253.639 170.704 251.25 168.387C248.933 166.071 245.856 164.912 242.019 164.912C238.109 164.912 234.96 166.071 232.571 168.387C230.254 170.704 229.096 173.781 229.096 177.618V203.791C229.096 207.556 230.254 210.597 232.571 212.913C234.96 215.23 238.109 216.389 242.019 216.389C245.856 216.389 248.933 215.23 251.25 212.913C253.639 210.597 254.834 207.556 254.834 203.791C254.834 202.995 255.268 202.596 256.137 202.596L268.843 203.139C269.205 203.139 269.495 203.248 269.712 203.465C270.002 203.682 270.147 203.936 270.147 204.225C270.147 209.221 268.952 213.637 266.563 217.475C264.246 221.312 260.952 224.28 256.68 226.38C252.481 228.479 247.594 229.529 242.019 229.529C236.372 229.529 231.412 228.443 227.141 226.271C223.58 224.4 220.698 221.925 218.496 218.847L209.982 253.991C209.765 254.715 209.258 255.077 208.462 255.077H195.538C194.814 255.077 194.344 254.715 194.126 253.991L183.049 206.967C182.977 206.677 182.868 206.533 182.723 206.533C182.579 206.533 182.47 206.677 182.398 206.967L172.08 253.882C171.936 254.679 171.465 255.077 170.669 255.077H158.614Z" fill="url(#paint1_linear_16_151)"/>
<defs>
<linearGradient id="paint0_linear_16_151" x1="0" y1="203.82" x2="407.639" y2="203.82" gradientUnits="userSpaceOnUse">
<stop stop-color="#EE7632"/>
<stop offset="1" stop-color="#F19650"/>
</linearGradient>
<linearGradient id="paint1_linear_16_151" x1="137.763" y1="203.424" x2="270.147" y2="203.424" gradientUnits="userSpaceOnUse">
<stop stop-color="#EE7632"/>
<stop offset="1" stop-color="#F19650"/>
</linearGradient>
</defs>
</svg>
